<svg width="512" height="512" xml:space="preserve" xmlns="http://www.w3.org/2000/svg"><circle fill="#FF7513" cx="256" cy="256" r="256" style="fill:#fc0"/><path fill="#DB4600" d="m494 161-60-39v47h-7v162H225v96h-58l-1 6 117 78a256 256 0 0 0 211-350z" style="fill:#a80"/><path fill="#132439" d="m430 120-350 2c-5 0-9 4-9 9l1 235c0 5 4 9 9 9h132v38h-47v20l184-1v-20l-50 1v-39h131c5 0 9-4 9-9l-1-236c0-5-4-9-9-9zm-5 239-338 1-1-223 338-1 1 223z"/><path fill="#213b56" d="M166 413v20h90v-74l-168 1-1-223 168-1v-15l-175 1c-5 0-9 4-9 9l1 235c0 5 4 9 9 9h132v38h-47z"/><path fill="#fffff5" d="m86 137 337-2 1 223-337 2z"/><path fill="#eaeae2" d="m255 137 169-1 1 222-169 1z"/><g style="fill:currentColor"><path d="M304 323c0 17-17 30-38 30s-39-13-39-30 18-31 39-31 38 14 38 31z"/><path fill-rule="evenodd" d="M304 170v153h-15V170Z"/><path d="M289 167a15 15 0 0 1 12-15l46-9a15 15 0 0 1 18 15v27l-76 15z"/><path fill-rule="evenodd" d="M120 300a8 8 0 0 1 8-8h53a8 8 0 0 1 0 15h-53a8 8 0 0 1-8-7Zm0-62a8 8 0 0 1 8-7h115a8 8 0 0 1 0 15H128a8 8 0 0 1-8-8Zm0-61a8 8 0 0 1 8-7h115a8 8 0 0 1 0 15H128a8 8 0 0 1-8-8Z"/></g></svg>